<svg width="431" height="295" viewBox="0 0 431 295" fill="none" xmlns="http://www.w3.org/2000/svg">
<rect width="430.954" height="294.935" fill="black" fill-opacity="0"/>
<path d="M429.257 137.769C426.357 134.569 386.957 85.1685 379.957 76.7685C372.957 68.3685 369.657 69.8685 365.357 70.5685C361.057 71.2685 311.157 79.5685 305.357 80.5685C299.557 81.5685 295.957 83.8685 299.457 88.8685C302.657 93.2685 335.457 139.869 342.657 150.069L212.157 181.369L108.557 7.86852C104.457 1.76852 103.557 -0.43148 94.1568 0.06852C84.7568 0.46852 12.7568 6.46852 7.65676 6.86852C2.55676 7.26852 -3.14323 9.56853 2.05677 21.6685C7.15677 33.7685 88.9568 209.969 91.2568 215.069C93.5568 220.169 99.4568 228.469 113.357 225.169C127.557 221.769 176.857 208.869 203.757 201.869C217.957 227.669 247.057 279.868 252.357 287.368C259.557 297.368 264.457 295.668 275.457 292.368C284.057 289.768 409.857 244.569 415.557 242.169C421.257 239.869 424.757 238.169 420.857 232.469C418.057 228.269 384.857 183.869 367.457 160.569C379.357 157.369 421.657 146.169 426.257 144.869C431.457 143.569 432.157 140.969 429.257 137.769ZM192.057 186.269C190.457 186.569 117.457 204.069 113.557 204.969C109.657 205.869 109.657 205.369 109.257 204.069C108.857 202.769 22.3568 24.4685 21.1568 22.2685C19.9568 20.0685 20.0568 18.2685 21.1568 18.2685C22.2568 18.2685 90.1568 12.1685 92.5568 12.0685C94.9568 11.9685 94.6568 12.4685 95.5568 13.9685C95.5568 13.9685 191.257 179.169 192.957 182.069C194.657 185.069 193.657 185.969 192.057 186.269ZM398.157 224.869C399.357 226.669 400.457 227.869 396.857 229.169C393.157 230.469 273.157 270.969 270.857 271.969C268.557 272.969 266.657 273.269 263.657 268.969C260.657 264.669 221.657 197.069 221.657 197.069L348.857 163.969C352.057 162.969 353.057 162.269 355.057 165.469C357.057 168.669 396.957 223.069 398.157 224.869ZM406.257 134.569C403.357 135.169 356.657 146.769 356.657 146.769L318.457 94.3685C317.357 92.8685 316.457 91.3685 319.157 90.9685C321.857 90.5685 365.257 82.7685 367.157 82.3685C369.157 81.9685 370.857 81.3685 373.257 84.6685C375.657 87.9685 408.657 129.769 409.957 131.369C411.257 132.969 409.157 133.969 406.257 134.569Z" fill="#FB503B"/>
</svg>
